<svg height="600" width="900" xmlns="http://www.w3.org/2000/svg"><path d="m0 0h900v600h-900z" fill="#fff"/><g fill="#0084c9" transform="translate(-.057607 .028803)"><path d="m533.039 82.561h1.922c1.309.37 2.471.888 3.84 1.2 4.354 11.326 14.9 17.738 18.719 28.8-2.764 1.271-4.908-1.221-7.92-.721-2.576.429-2.676 3.004-4.32 5.04-.838 1.04-2.475 1.799-3.6 2.881-6.967 6.693-13.668 17.029-18 26.159.797 1.903 1.941 3.039 2.641 5.04 2.371 6.786-1.016 16.439.719 24.24-15.082 5.797-21.17 20.589-36.479 26.16-.197 14.763-21.697 8.224-27.361 17.52-7.09 1.908-11.867 5.516-12.479 13.921-.254 3.488.996 8.142 0 10.8-.734 1.956-4.45 1.656-4.561 3.84-.141 2.769 6.664 5.904 8.879 7.2 5.961 3.484 10.096 6.113 13.201 11.76 14.156 6.505 15.168 23.368 23.279 36 3.719 5.789 7.867 11.877 11.76 18 3.904 6.139 8.354 12.262 11.041 18.48 4.113 9.518 3.861 22.482 2.879 35.039-.482 6.188-.449 11.822-1.68 17.279 1.219.941 4.084.236 4.801 1.682.836 8.768-1.766 16.365-4.32 23.039-2.404 6.285-5.797 13.682-11.279 16.561-8.561 4.492-20.449.588-31.682 1.439-8.316.631-12.496 4.863-18.719 8.641-6.097 3.699-12.42 5.598-18 9.359-2.81 1.895-6.621 6.65-9.6 7.68-4.535 1.566-9.814-.535-11.761-2.16-6.18-5.156-8.811-19.215-8.16-30.959.343-6.18 2.293-10.451 4.561-14.16 2.586-4.23 6.504-7.137 6.72-12 .266-5.977-4.979-9.604-5.52-17.041-.357-4.908 1.464-12.535.239-17.039-1.693-6.232-13.845-2.494-11.52-11.76 1.075-4.289 10.521-4.828 15.6-3.121 3.196 1.076 5.345 4.527 9.12 3.361.102-4.658-.215-8.467-2.16-11.76-1.043-1.768-3.046-2.533-4.08-4.32-1.596-2.762-3.242-8.648-3.6-12.721-.397-4.523 1.534-11.102-.479-13.68-3.553-4.549-20.268.016-25.44-2.641-.637-.326-.979-1.096-1.68-1.92-.589-.691-1.322-1.248-1.681-1.68-1.118-1.348-2.157-3.494-4.08-2.641-1.802.801-.397 4.756-2.399 5.76-4.012 2.014-10.511-3.584-13.44-5.52-4.947-3.267-13.457-7.26-9.6-15.839 2.384-5.302 7.524-7.388 11.28-12.24 4.491-1.028 10.694-.345 11.76-4.8-3.067-2.205-10.027.489-12.96-2.641-1.269-12.573 13.194-19.217 11.28-31.68-1.058-6.883-9.547-6.553-17.28-7.44-7.203-.826-13.154-3.053-16.561-8.159-.551-.826-.842-1.568-1.439-2.4-.504-.7-.492-1.687-.96-3.12 0-.88 0-1.76 0-2.64 1.97-10.193 13.722-15.625 21.359-20.4 2.432-1.521 4.522-3.304 6.721-4.56 7.788-4.451 16.247-7.402 23.76-12 3.464-2.121 7.022-4.769 10.32-7.681 1.51-1.333 2.733-3.111 4.319-4.56 1.677-1.531 3.525-2.634 4.8-4.32 6.417-8.488 4.868-20.031 18.24-23.28 5.258 6.958 11.1 12.935 20.16 15.36 3.248.87 6.293.507 10.561.96 1.809.192 3.891 1.261 6.24 1.2 4.199-.109 8.316-2.459 8.879-5.76 1.268-7.435-8.152-10.228-7.199-17.28.598-4.43 6.855-5.52 12.719-5.52 4.041 0 8.291 1.34 11.521 1.199 6.303-.273 9.678-5.519 12.238-9.359 1.713-2.567 4.268-8.3 8.16-8.88 1.559-.232 4.025 1.114 6.721.239 9.165-2.97 1.573-22.401 11.04-25.436z"/><path d="m400.08 517.439c-6.319-8.459 6.754-14.285 14.4-14.879 4.596-.357 10.769.939 11.279 4.08.287 1.758-1.427 4.248-2.399 5.279-4.465 4.737-15.469 4.231-23.28 5.52z"/><path d="m589.16864 316.09193c-1.26038-2.82859 1.34717-4.77674 2.87223-4.97536.91672-.11938 2.14799.31399 2.24971 1.36429.0572.58787-.28463 1.42049-.47851 1.76525-.89058 1.58398-3.08544 1.41479-4.64343 1.84582z"/><g transform="matrix(.00832568 0 0 .00832568 588.00247 305.5115)"><path d="m1933.1248 1726.7214c29.4944-15.3569 54.8082-40.5697 66.2555-72.1922-4.8546-45.3542-47.1082-79.5116-42.809-126.8123.072-23.8758-1.5656-50.4243-18.4479-69.0186-25.3787-9.2415-52.4469 23.716-38.5109 46.8289 13.3662 32.1657-34.2327 65.549-59.7884 41.703-20.774-19.6316-62.6138 5.0229-51.6386 32.8495 6.6752 23.2899 22.5738 46.5104 14.991 71.6237-3.3965 23.6517-10.5699 48.6379-1.6125 71.9493 22.9822 26.6666 65.6637 17.1494 88.7451 43.6723 22.7983 14.7212 59.2395-16.4781 42.8157-40.6036z"/><path d="m2163.9091 1527.4778c-30.6108 24.9019-52.5125 62.1375-91.3014 75.7263-26.2372 24.1046-33.1206 64.931-20.12 97.4946.11 25.8253-26.3721 42.4173-26.3958 68.2099 18.2915 16.2523 48.0289 14.8016 62.0278 36.6751-4.7379 26.0049 41.4227 31.721 45.9047 7.0495-3.9114-37.5229 25.6602-77.3453 64.6175-79.0253 24.3572-7.5802 32.1041-42.2694 14.2311-60.0233-13.0263-20.4805-36.206-34.0096-60.4016-35.5407-13.8819-21.4813 7.6359-42.276 12.9759-62.6654 3.712-15.8153 1.0432-32.1381-1.5382-47.9007z"/></g></g></svg>